<svg width="30.000000" height="30.000000" viewBox="0 0 30 30" fill="none" xmlns="http://www.w3.org/2000/svg" xmlns:xlink="http://www.w3.org/1999/xlink">
	<defs/>
	<path id="path" d="M8.43 20.03C8.61 20.64 9.27 21 9.91 20.83C10.55 20.66 10.93 20.03 10.75 19.41L8.43 20.03ZM6.14 7.74L7.3 7.44L6.14 7.74ZM3.93 5.66L3.61 6.77L3.93 5.66ZM1.52 3.82C0.88 3.65 0.22 4.01 0.04 4.63C-0.14 5.24 0.24 5.88 0.88 6.05L1.52 3.82ZM28.79 20.73C29.43 20.57 29.81 19.95 29.65 19.33C29.48 18.71 28.82 18.34 28.18 18.5L28.79 20.73ZM12.75 23.55C13.25 25.28 12.16 27.09 10.22 27.57L10.83 29.81C14 29.02 15.94 25.96 15.07 22.94L12.75 23.55ZM10.22 27.57C8.28 28.06 6.33 26.98 5.83 25.24L3.51 25.85C4.37 28.86 7.67 30.59 10.83 29.81L10.22 27.57ZM5.83 25.24C5.33 23.52 6.42 21.7 8.35 21.22L7.75 18.99C4.57 19.78 2.64 22.83 3.51 25.85L5.83 25.24ZM8.35 21.22C10.3 20.73 12.25 21.82 12.75 23.55L15.07 22.94C14.2 19.93 10.91 18.2 7.75 18.99L8.35 21.22ZM10.75 19.41L7.3 7.44L4.98 8.05L8.43 20.03L10.75 19.41ZM4.26 4.55L1.52 3.82L0.88 6.05L3.61 6.77L4.26 4.55ZM7.3 7.44C6.89 6.03 5.73 4.94 4.26 4.55L3.61 6.77C4.29 6.95 4.8 7.45 4.98 8.05L7.3 7.44ZM14.21 24.36L28.79 20.73L28.18 18.5L13.61 22.13L14.21 24.36Z" fill="#1C274C" fill-opacity="1.000000" fill-rule="nonzero"/>
	<path id="path (Граница)" d="M25 3.46C25.2 3.91 25.53 4.9 25.97 6.42C26.14 7.04 26.8 7.4 27.45 7.23C28.09 7.05 28.46 6.43 28.28 5.81C27.82 4.18 27.46 3.1 27.21 2.55C26.77 1.56 26.16 0.86 25.4 0.45C24.65 0.05 23.71 -0.09 22.58 0.05C21.94 0.12 20.76 0.38 19.01 0.81L15.93 1.58C14.19 2.01 13.02 2.34 12.44 2.57C11.38 2.98 10.63 3.54 10.19 4.25C9.74 4.97 9.59 5.86 9.74 6.93C9.82 7.52 10.1 8.63 10.57 10.26L11.39 13.12C11.86 14.74 12.22 15.83 12.47 16.38C12.91 17.37 13.51 18.07 14.28 18.48C15.03 18.88 15.97 19.01 17.1 18.88C17.73 18.8 18.92 18.55 20.66 18.11L23.74 17.35C25.49 16.91 26.65 16.58 27.24 16.35C28.3 15.94 29.05 15.38 29.49 14.67C29.76 14.24 29.92 13.76 29.97 13.24C30.02 12.8 29.99 12.29 29.89 11.71C29.78 11.07 29.17 10.66 28.51 10.76C27.84 10.87 27.41 11.45 27.52 12.09C27.63 12.74 27.6 13.21 27.42 13.5C27.26 13.76 26.9 14 26.34 14.22C25.85 14.41 24.78 14.71 23.14 15.12L20.06 15.88C18.42 16.29 17.33 16.53 16.8 16.59C16.2 16.66 15.75 16.62 15.45 16.46C15.16 16.31 14.91 15.98 14.68 15.47C14.47 15.01 14.15 14.03 13.71 12.5L12.89 9.64C12.45 8.12 12.19 7.11 12.13 6.63C12.05 6.09 12.09 5.69 12.25 5.43C12.42 5.16 12.78 4.92 13.34 4.71C13.83 4.52 14.9 4.22 16.54 3.81L19.62 3.04C21.26 2.63 22.35 2.4 22.87 2.33C23.48 2.26 23.93 2.3 24.23 2.46C24.51 2.61 24.77 2.95 25 3.46Z" fill="#1C274C" fill-opacity="1.000000" fill-rule="evenodd"/>
</svg>
