<svg width="30.000000" height="30.000000" viewBox="0 0 30 30" fill="none" xmlns="http://www.w3.org/2000/svg" xmlns:xlink="http://www.w3.org/1999/xlink">
	<defs/>
	<path id="path (Граница)" d="M28.86 21.83C28.95 21.25 28.55 20.73 27.97 20.65C27.39 20.56 26.87 20.96 26.79 21.54C26.51 23.51 26.29 24.81 26.11 25.43C25.89 26.21 25.58 26.77 25.18 27.11C24.76 27.45 24.11 27.67 23.24 27.78C22.56 27.86 21.16 27.9 19.05 27.9L10.94 27.9C8.83 27.9 7.44 27.86 6.76 27.78C5.88 27.67 5.23 27.45 4.82 27.11C4.41 26.77 4.1 26.21 3.88 25.42C3.71 24.81 3.48 23.51 3.2 21.54L2.61 17.35C2.42 15.98 2.29 15.02 2.23 14.46C2.13 13.6 2.08 12.9 2.09 12.36C2.09 11.81 2.15 11.35 2.26 11C2.34 10.72 2.47 10.48 2.63 10.27C2.67 10.23 2.7 10.2 2.73 10.16C2.95 9.92 3.24 9.73 3.58 9.59C3.95 9.43 4.43 9.31 5.03 9.23C5.59 9.16 6.34 9.11 7.27 9.09C7.86 9.07 8.89 9.06 10.35 9.06L19.64 9.06C21.1 9.06 22.13 9.07 22.73 9.09C23.65 9.11 24.4 9.16 24.97 9.23C25.56 9.31 26.05 9.43 26.42 9.59C26.76 9.73 27.04 9.92 27.26 10.16C27.6 10.52 27.8 11.04 27.87 11.7C27.94 12.38 27.89 13.44 27.72 14.87C27.65 15.45 28.05 15.96 28.63 16.03C29.21 16.1 29.72 15.7 29.8 15.12C29.99 13.53 30.04 12.32 29.95 11.48C29.85 10.48 29.53 9.65 29.01 8.98C28.94 8.9 28.87 8.82 28.8 8.74C28.74 8.67 28.68 8.62 28.62 8.56C28.23 8.18 27.76 7.88 27.23 7.66C26.68 7.43 26.02 7.26 25.24 7.16C24.6 7.07 23.78 7.02 22.78 6.99C22.17 6.98 21.12 6.97 19.64 6.97L10.35 6.97C8.87 6.97 7.83 6.98 7.22 6.99C6.21 7.02 5.39 7.07 4.75 7.16C3.97 7.26 3.31 7.43 2.77 7.66C2.23 7.88 1.77 8.18 1.37 8.56C1.31 8.62 1.25 8.67 1.2 8.74C1.06 8.89 0.93 9.05 0.81 9.22C0.58 9.57 0.39 9.95 0.26 10.38C0.09 10.93 0 11.59 0 12.34C-0.01 12.96 0.04 13.75 0.15 14.7C0.21 15.27 0.34 16.25 0.54 17.64L1.13 21.83C1.28 22.92 1.4 23.69 1.47 24.14C1.6 24.89 1.73 25.51 1.86 25.99C2.2 27.19 2.74 28.1 3.48 28.72C4.22 29.32 5.22 29.7 6.51 29.86C7.03 29.92 7.68 29.96 8.48 29.98C8.96 29.99 9.78 30 10.94 30L19.05 30C20.21 30 21.04 29.99 21.52 29.98C22.31 29.96 22.97 29.92 23.49 29.86C24.77 29.7 25.78 29.32 26.51 28.72C27.25 28.1 27.79 27.19 28.13 25.99C28.27 25.51 28.4 24.89 28.52 24.14C28.6 23.69 28.71 22.92 28.86 21.83Z" fill="#1C274C" fill-opacity="1.000000" fill-rule="evenodd"/>
	<path id="path (Граница)" d="M24.49 7C24.56 7.26 24.57 7.54 24.52 7.84L26.58 8.2C26.64 7.87 26.66 7.54 26.63 7.22C26.61 6.95 26.57 6.69 26.49 6.42C26.42 6.16 26.32 5.91 26.2 5.67C26.06 5.41 25.9 5.15 25.7 4.92C25.5 4.68 25.28 4.47 25.04 4.29C24.83 4.13 24.6 3.99 24.35 3.87C24.11 3.76 23.85 3.67 23.59 3.6C23.28 3.52 22.95 3.48 22.62 3.48L7.37 3.48C7.04 3.48 6.71 3.52 6.4 3.6C6.14 3.67 5.89 3.76 5.64 3.87C5.39 3.99 5.16 4.13 4.95 4.29C4.71 4.47 4.49 4.68 4.29 4.92C4.1 5.15 3.93 5.41 3.79 5.67C3.67 5.91 3.57 6.16 3.5 6.42C3.43 6.69 3.38 6.95 3.36 7.22C3.34 7.54 3.36 7.87 3.41 8.2L5.47 7.84C5.42 7.54 5.43 7.26 5.5 7C5.57 6.74 5.71 6.49 5.9 6.26C6.09 6.04 6.31 5.86 6.56 5.75C6.8 5.63 7.08 5.58 7.37 5.58L22.62 5.58C22.92 5.58 23.19 5.63 23.44 5.75C23.68 5.86 23.9 6.04 24.1 6.26C24.29 6.49 24.42 6.74 24.49 7Z" fill="#1C274C" fill-opacity="1.000000" fill-rule="evenodd"/>
	<path id="path (Граница)" d="M21.69 3.84C21.69 3.9 21.67 4.09 21.63 4.42L23.71 4.64C23.76 4.25 23.78 3.98 23.78 3.84C23.78 3.35 23.7 2.89 23.54 2.46C23.37 2.03 23.13 1.64 22.8 1.27C22.47 0.91 22.1 0.62 21.7 0.41C21.29 0.2 20.84 0.07 20.35 0.02C20.21 0 19.95 0 19.55 0L10.45 0C10.05 0 9.78 0 9.64 0.02C9.16 0.07 8.71 0.2 8.3 0.41C7.89 0.62 7.52 0.91 7.2 1.27C6.87 1.64 6.62 2.03 6.46 2.46C6.3 2.89 6.21 3.35 6.22 3.84C6.22 3.98 6.24 4.24 6.28 4.64L8.36 4.42C8.33 4.09 8.31 3.9 8.31 3.84C8.31 3.61 8.34 3.4 8.42 3.21C8.49 3.01 8.6 2.83 8.75 2.67C8.9 2.5 9.07 2.37 9.26 2.28C9.44 2.18 9.64 2.12 9.87 2.1C9.93 2.09 10.12 2.09 10.45 2.09L19.55 2.09C19.87 2.09 20.07 2.09 20.13 2.1C20.35 2.12 20.55 2.18 20.74 2.28C20.92 2.37 21.09 2.5 21.24 2.67C21.39 2.83 21.5 3.01 21.57 3.21C21.65 3.4 21.69 3.61 21.69 3.84Z" fill="#1C274C" fill-opacity="1.000000" fill-rule="evenodd"/>
	<path id="circle (Граница)" d="M18.14 14.3C18.14 12.56 19.54 11.16 21.28 11.16C23.01 11.16 24.42 12.56 24.42 14.3C24.42 16.03 23.01 17.44 21.28 17.44C19.54 17.44 18.14 16.03 18.14 14.3ZM20.23 14.3C20.23 13.72 20.7 13.25 21.28 13.25C21.86 13.25 22.32 13.72 22.32 14.3C22.32 14.88 21.86 15.34 21.28 15.34C20.7 15.34 20.23 14.88 20.23 14.3Z" fill="#1C274C" fill-opacity="1.000000" fill-rule="evenodd"/>
	<path id="path (Граница)" d="M21.51 24L25.54 27C26.01 27.35 26.65 27.25 27 26.78C27.35 26.31 27.26 25.67 26.79 25.32L22.76 22.32C22.5 22.12 22.22 21.95 21.92 21.82C21.31 21.52 20.64 21.36 19.91 21.32C19.22 21.29 18.58 21.37 17.97 21.57C17.62 21.68 17.28 21.83 16.95 22.02L16.58 22.24C16.5 22.29 16.41 22.33 16.33 22.36C16.08 22.45 15.82 22.49 15.53 22.47C15.2 22.45 14.92 22.35 14.69 22.2C14.65 22.17 14.61 22.14 14.57 22.11L9.21 17.68C8.96 17.47 8.69 17.29 8.41 17.15C7.88 16.9 7.29 16.76 6.64 16.74C6.01 16.72 5.43 16.82 4.9 17.04C4.58 17.16 4.29 17.32 4.01 17.53L2.16 18.86C1.69 19.21 1.59 19.85 1.93 20.33C2.27 20.8 2.92 20.9 3.39 20.56L5.24 19.22C5.33 19.15 5.43 19.1 5.53 19.05C5.84 18.89 6.19 18.82 6.58 18.83C6.99 18.84 7.35 18.94 7.65 19.12C7.73 19.17 7.81 19.23 7.88 19.29L13.24 23.72C13.44 23.89 13.65 24.03 13.88 24.15C14.33 24.38 14.83 24.52 15.38 24.56C15.88 24.59 16.36 24.54 16.81 24.41C17.09 24.32 17.37 24.2 17.63 24.05L18 23.83C18.15 23.74 18.31 23.67 18.47 23.61C18.88 23.46 19.33 23.39 19.8 23.41C20.32 23.44 20.79 23.57 21.2 23.8C21.31 23.86 21.41 23.92 21.51 24Z" fill="#1C274C" fill-opacity="1.000000" fill-rule="evenodd"/>
</svg>
