<svg width="30.000000" height="30.000000" viewBox="0 0 30 30" fill="none" xmlns="http://www.w3.org/2000/svg" xmlns:xlink="http://www.w3.org/1999/xlink">
	<defs/>
	<path id="path" d="M30 17.4L30 15.28C30 14.69 29.53 14.23 28.95 14.23C28.36 14.23 27.9 14.69 27.9 15.28L27.9 17.4C27.9 19.09 27.89 20.29 27.88 20.97C27.85 22.06 27.79 22.93 27.71 23.6C27.61 24.32 27.47 24.91 27.29 25.38C27.11 25.83 26.87 26.22 26.56 26.53C26.26 26.84 25.89 27.09 25.47 27.27C25.02 27.46 24.45 27.61 23.77 27.7C23.12 27.79 22.28 27.85 21.24 27.88C20.57 27.89 19.42 27.9 17.79 27.9L12.2 27.9C10.57 27.9 9.42 27.89 8.75 27.88C7.71 27.85 6.87 27.79 6.22 27.7C5.54 27.61 4.97 27.46 4.52 27.27C4.1 27.09 3.73 26.84 3.43 26.53C3.12 26.22 2.88 25.83 2.7 25.38C2.52 24.91 2.38 24.32 2.28 23.6C2.2 22.93 2.14 22.06 2.11 20.97C2.1 20.29 2.09 19.09 2.09 17.4L2.09 15.28C2.09 13.45 2.12 12.23 2.17 11.62C2.25 10.8 2.42 10.15 2.68 9.67C2.95 9.19 3.39 8.71 4.03 8.22C4.5 7.86 5.5 7.21 7.01 6.27L9.8 4.54C11.41 3.54 12.49 2.91 13.05 2.63C13.8 2.27 14.45 2.09 15 2.09C15.54 2.09 16.19 2.27 16.94 2.63C17.5 2.91 18.58 3.54 20.19 4.54L22.98 6.27C24.49 7.21 25.49 7.86 25.96 8.22C26.6 8.71 27.04 9.19 27.31 9.67C27.59 10.18 28.21 10.37 28.73 10.08C29.24 9.8 29.42 9.18 29.14 8.66C28.74 7.93 28.1 7.23 27.23 6.56C26.71 6.16 25.65 5.47 24.08 4.49L21.29 2.76C19.63 1.73 18.48 1.06 17.85 0.75C16.82 0.25 15.86 0 15 0C14.13 0 13.17 0.25 12.14 0.75C11.51 1.06 10.36 1.73 8.7 2.76L5.91 4.49C4.34 5.47 3.29 6.16 2.76 6.56C1.89 7.23 1.25 7.93 0.85 8.66C0.45 9.4 0.19 10.32 0.09 11.42C0.03 12.1 0 13.38 0 15.28L0 17.4C0 19.11 0 20.32 0.02 21.03C0.05 22.18 0.11 23.13 0.21 23.87C0.32 24.76 0.51 25.52 0.76 26.16C1.04 26.86 1.43 27.47 1.92 27.98C2.42 28.5 3.02 28.9 3.7 29.2C4.32 29.46 5.07 29.65 5.94 29.77C6.66 29.87 7.58 29.94 8.7 29.97C9.38 29.99 10.55 30 12.2 30L17.79 30C19.44 30 20.61 29.99 21.29 29.97C22.41 29.94 23.33 29.87 24.05 29.77C24.92 29.65 25.67 29.46 26.29 29.2C26.97 28.9 27.57 28.5 28.07 27.98C28.56 27.47 28.95 26.86 29.23 26.16C29.48 25.52 29.67 24.76 29.78 23.87C29.88 23.13 29.94 22.18 29.97 21.03C29.99 20.32 30 19.11 30 17.4Z" fill="#1C274C" fill-opacity="1.000000" fill-rule="evenodd"/>
	<path id="path" d="M11 23C10.43 23 10 23.44 10 24C10 24.56 10.43 25 11 25L19 25C19.56 25 20 24.56 20 24C20 23.44 19.56 23 19 23L11 23Z" fill="#1C274C" fill-opacity="1.000000" fill-rule="evenodd"/>
</svg>
