<svg width="30.000000" height="30.000000" viewBox="0 0 30 30" fill="none" xmlns="http://www.w3.org/2000/svg" xmlns:xlink="http://www.w3.org/1999/xlink">
	<defs/>
	<path id="path (Граница)" d="M27.71 10.09C27.81 10.61 27.88 11.33 27.9 12.23C27.92 12.82 28.39 13.27 28.98 13.25C29.56 13.23 30.01 12.76 29.99 12.17C29.97 11.15 29.89 10.33 29.77 9.7C29.62 8.94 29.38 8.26 29.04 7.68C28.57 6.9 27.85 6.17 26.86 5.51C26.26 5.11 25.07 4.44 23.28 3.51L20.49 2.04C19.03 1.28 18.03 0.78 17.48 0.56C16.57 0.18 15.75 0 15.01 0C14.26 0 13.44 0.18 12.53 0.56C11.98 0.78 10.98 1.28 9.52 2.04L6.73 3.51C4.95 4.44 3.75 5.11 3.15 5.51C2.16 6.17 1.44 6.9 0.97 7.68C0.51 8.46 0.22 9.46 0.1 10.67C0.03 11.41 0 12.82 0 14.91L0 15.08C0 17.17 0.03 18.58 0.1 19.32C0.22 20.53 0.51 21.53 0.97 22.31C1.44 23.09 2.16 23.82 3.15 24.48C3.75 24.88 4.94 25.55 6.73 26.48L9.52 27.95C10.98 28.71 11.99 29.21 12.53 29.43C13.44 29.81 14.26 30 15.01 30C15.75 30 16.57 29.81 17.48 29.43C18.03 29.21 19.03 28.71 20.49 27.95L23.28 26.48C25.07 25.55 26.26 24.88 26.86 24.48C27.85 23.82 28.57 23.09 29.04 22.31C29.38 21.73 29.62 21.05 29.77 20.29C29.89 19.66 29.97 18.84 29.99 17.82C30.01 17.23 29.56 16.76 28.98 16.74C28.39 16.72 27.92 17.17 27.9 17.76C27.88 18.66 27.81 19.38 27.71 19.9C27.61 20.42 27.45 20.87 27.23 21.25C26.93 21.76 26.42 22.25 25.7 22.74C25.16 23.1 24.03 23.73 22.31 24.63L19.52 26.09C18.11 26.83 17.17 27.3 16.68 27.5C16.03 27.77 15.47 27.9 15.01 27.9C14.54 27.9 13.98 27.77 13.33 27.5C12.84 27.3 11.9 26.83 10.5 26.09L7.7 24.63C5.98 23.73 4.85 23.1 4.31 22.74C3.59 22.25 3.08 21.76 2.78 21.25C2.47 20.73 2.28 20.02 2.19 19.11C2.12 18.44 2.09 17.1 2.09 15.08L2.09 14.91C2.09 12.89 2.12 11.55 2.19 10.88C2.28 9.97 2.47 9.26 2.78 8.74C3.08 8.23 3.59 7.74 4.31 7.25C4.85 6.89 5.98 6.26 7.7 5.36L10.5 3.9C11.9 3.16 12.84 2.69 13.33 2.49C13.98 2.22 14.54 2.09 15.01 2.09C15.47 2.09 16.03 2.22 16.68 2.49C17.17 2.69 18.11 3.16 19.51 3.9L22.31 5.36C24.03 6.26 25.16 6.89 25.7 7.25C26.42 7.74 26.93 8.23 27.23 8.74C27.45 9.12 27.61 9.57 27.71 10.09Z" fill="#1C274C" fill-opacity="1.000000" fill-rule="evenodd"/>
	<path id="path (Граница)" d="M9.21 3.6C8.69 3.33 8.07 3.52 7.8 4.04C7.52 4.56 7.72 5.18 8.23 5.46L19.69 11.48L15.01 13.83L2.91 7.78C2.38 7.52 1.76 7.72 1.5 8.25C1.24 8.77 1.45 9.39 1.97 9.65L13.96 15.64L13.96 28.25C13.96 28.84 14.42 29.3 15.01 29.3C15.59 29.3 16.05 28.84 16.05 28.25L16.05 15.64L19.62 13.86L20.94 13.2L20.94 16.39C20.94 16.98 21.4 17.44 21.99 17.44C22.57 17.44 23.03 16.98 23.03 16.39L23.03 12.15L28.04 9.65C28.57 9.39 28.77 8.77 28.51 8.25C28.25 7.72 27.63 7.52 27.1 7.78L22 10.33L9.21 3.6Z" fill="#1C274C" fill-opacity="1.000000" fill-rule="evenodd"/>
</svg>
